PathFileType	4	(X/Y/Z)	/Users/itak/Documents/Research/Walk-IL/dataset/trc/00456_00167.trc
DataRate	CameraRate	NumFrames	NumMarkers	Units	OrigDataRate	OrigDataStartFrame	OrigNumFrames
100.000000	100.000000	4	53	mm	100.000000	64	512
Frame#	Time	RPSI			LPSI			L3			STRN			T10			C7			CLAV			RBAK			LBAK			LSHO			LUPA			LAEL			LAOL			LWTS			LWPS			LFRA			LHPS			LHTS			RSHO			RUPA			RAEL			RAOL			RWTS			RWPS			RFRA			RIFD			RHTS			RHPS			RBHD			LFHD			RFHD			LBHD			LHIP			RHIP			RASI			LASI			LKNE			LTHI			LANK			LTIP			LTOE			LMT1			LMT5			LHEE			RKNE			RTHI			RANK			RTIP			RTOE			RMT1			RMT5			RHEE			LIFD			
		X1	Y1	Z1	X2	Y2	Z2	X3	Y3	Z3	X4	Y4	Z4	X5	Y5	Z5	X6	Y6	Z6	X7	Y7	Z7	X8	Y8	Z8	X9	Y9	Z9	X10	Y10	Z10	X11	Y11	Z11	X12	Y12	Z12	X13	Y13	Z13	X14	Y14	Z14	X15	Y15	Z15	X16	Y16	Z16	X17	Y17	Z17	X18	Y18	Z18	X19	Y19	Z19	X20	Y20	Z20	X21	Y21	Z21	X22	Y22	Z22	X23	Y23	Z23	X24	Y24	Z24	X25	Y25	Z25	X26	Y26	Z26	X27	Y27	Z27	X28	Y28	Z28	X29	Y29	Z29	X30	Y30	Z30	X31	Y31	Z31	X32	Y32	Z32	X33	Y33	Z33	X34	Y34	Z34	X35	Y35	Z35	X36	Y36	Z36	X37	Y37	Z37	X38	Y38	Z38	X39	Y39	Z39	X40	Y40	Z40	X41	Y41	Z41	X42	Y42	Z42	X43	Y43	Z43	X44	Y44	Z44	X45	Y45	Z45	X46	Y46	Z46	X47	Y47	Z47	X48	Y48	Z48	X49	Y49	Z49	X50	Y50	Z50	X51	Y51	Z51	X52	Y52	Z52	X53	Y53	Z53	

65	0.64	-1190.62890625	972.7568969726562	-539.880615234375	-1205.245239257812	968.2598266601562	-681.6104736328125	-1176.215209960938	1058.411743164062	-595.7528686523438	-909.2071533203125	1250.974609375	-653.586669921875	-1193.171020507812	1183.617431640625	-597.5007934570312	-1120.293579101562	1451.610717773438	-603.5130004882812	-944.3305053710938	1363.735473632812	-652.93408203125	-1167.675903320312	1334.039428710938	-497.1064147949219	-1175.103515625	1402.955810546875	-691.593017578125	-1092.7548828125	1423.800048828125	-792.3312377929688	-1128.290771484375	1305.221923828125	-882.8021240234375	-1125.062377929688	1088.732543945312	-916.5003051757812	-1189.696044921875	1078.90673828125	-836.2981567382812	-1040.955688476562	885.5407104492188	-882.5360717773438	-1097.730834960938	871.7374267578125	-929.248779296875	-1107.675170898438	1000.211547851562	-927.5662231445312	-1092.786010742188	794.501708984375	-932.4425659179688	-1028.82421875	799.7476196289062	-896.9990234375	-1026.124877929688	1422.722412109375	-459.1983642578125	-1033.073120117188	1364.882446289062	-379.4041748046875	-1019.140930175781	1082.603637695312	-308.1144409179688	-1077.839477539062	1063.303955078125	-335.1847839355469	-920.3794555664062	879.650390625	-367.2835693359375	-973.25048828125	865.1348266601562	-297.3755798339844	-1010.37451171875	1024.325561523438	-298.0798034667969	-912.1004028320312	723.8140258789062	-353.9750366210938	-898.26171875	783.4185791015625	-353.7947082519531	-953.6212768554688	779.4544067382812	-299.8938293457031	-985.4552001953125	1647.032348632812	-539.2138061523438	-880.377197265625	1630.930541992188	-716.7549438476562	-857.3233032226562	1629.899658203125	-588.1962280273438	-1031.131713867188	1657.618530273438	-711.7413940429688	-1081.114135742188	858.1502685546875	-813.3203735351562	-1069.209350585938	861.62353515625	-414.724853515625	-966.5942993164062	895.8981323242188	-486.0186767578125	-978.597900390625	896.1028442382812	-741.9850463867188	-1040.036376953125	437.2649841308594	-758.6268310546875	-1029.067626953125	588.9564819335938	-789.9413452148438	-1184.37646484375	39.91624069213867	-754.5648193359375	-1071.782348632812	284.345703125	-767.96630859375	-955.6921997070312	44.71692276000977	-671.4998168945312	-1030.634521484375	50.3470458984375	-647.2786254882812	-1030.177734375	47.38137054443359	-760.8651733398438	-1230.375244140625	44.08111572265625	-690.109130859375	-1071.604736328125	467.6395874023438	-431.064453125	-1033.118041992188	727.64013671875	-402.9578247070312	-1155.515625	39.1930046081543	-409.3989562988281	-1084.383544921875	326.7471618652344	-415.6306457519531	-945.1387329101562	48.25071334838867	-476.6197204589844	-1010.883911132812	54.26975250244141	-507.1563110351562	-1018.618774414062	46.85851669311523	-398.8971252441406	-1225.113403320312	33.26969528198242	-452.2331848144531	-1042.789184570312	716.2417602539062	-893.29296875	
66	0.65	-1188.56982421875	972.4645385742188	-541.3329467773438	-1203.528076171875	968.1102905273438	-683.0352172851562	-1174.280883789062	1058.190673828125	-597.30859375	-907.2756958007812	1250.662231445312	-656.2352905273438	-1191.100952148438	1183.414672851562	-598.9400024414062	-1118.18212890625	1451.402587890625	-605.1500244140625	-942.4495239257812	1363.477172851562	-655.4266357421875	-1165.123168945312	1333.766479492188	-498.6018981933594	-1173.401245117188	1402.7626953125	-692.9556884765625	-1091.502319335938	1423.639404296875	-794.07080078125	-1127.649780273438	1305.17822265625	-884.4741821289062	-1124.96142578125	1088.725219726562	-918.4102172851562	-1189.062255859375	1078.966918945312	-837.743408203125	-1041.893188476562	884.8842163085938	-885.61474609375	-1099.32568359375	871.5636596679688	-931.8178100585938	-1108.1923828125	1000.133422851562	-929.811767578125	-1094.694702148438	794.139404296875	-935.393310546875	-1030.673217773438	799.0074462890625	-900.5307006835938	-1023.380432128906	1422.325805664062	-461.2998962402344	-1030.055541992188	1364.472412109375	-381.5764770507812	-1016.159423828125	1082.353637695312	-310.0298767089844	-1074.974243164062	1063.004638671875	-336.8769226074219	-917.3065185546875	879.5914916992188	-369.4744873046875	-969.9513549804688	864.9360961914062	-299.4496154785156	-1007.305786132812	1024.0810546875	-300.0434875488281	-908.724853515625	723.74658203125	-356.3095397949219	-894.9727172851562	783.3955688476562	-356.1761474609375	-950.180419921875	779.2988891601562	-302.0794372558594	-983.2346801757812	1646.857421875	-541.4130859375	-878.474609375	1630.6123046875	-719.1297607421875	-855.2027587890625	1629.638671875	-590.6256103515625	-1029.223266601562	1657.31982421875	-713.8949584960938	-1079.753784179688	857.7789916992188	-815.0791625976562	-1066.858154296875	861.2164916992188	-416.4299926757812	-964.4946899414062	895.5349731445312	-488.2474670410156	-977.2163696289062	895.7200927734375	-744.0640869140625	-1039.24462890625	436.9270324707031	-759.4817504882812	-1028.026489257812	588.5480346679688	-791.1192626953125	-1184.413696289062	39.78603363037109	-754.7266845703125	-1071.301635742188	284.0142517089844	-768.5869750976562	-955.8477783203125	44.61491012573242	-671.3277587890625	-1030.742553710938	50.29924774169922	-647.2719116210938	-1030.18359375	47.33185577392578	-760.8983154296875	-1230.474365234375	44.07425689697266	-690.290283203125	-1067.861328125	467.0692443847656	-432.3500671386719	-1030.437255859375	727.3032836914062	-404.7101135253906	-1155.408935546875	39.25151443481445	-409.4435119628906	-1081.832153320312	326.5014343261719	-416.59228515625	-945.0620727539062	48.21463775634766	-476.4307556152344	-1010.772705078125	54.24069595336914	-507.0877990722656	-1018.564270019531	46.71186828613281	-398.7645568847656	-1225.000854492188	33.56132507324219	-452.2760620117188	-1045.01953125	715.6253662109375	-896.7264404296875	
67	0.66	-1186.531005859375	972.093994140625	-542.8742065429688	-1201.792114257812	967.9359130859375	-684.5485229492188	-1172.361572265625	1057.962768554688	-598.9677734375	-905.3447265625	1250.326416015625	-658.9222412109375	-1189.038330078125	1183.204345703125	-600.4813842773438	-1116.026977539062	1451.180297851562	-606.8406372070312	-940.560791015625	1363.196411132812	-657.9572143554688	-1162.558349609375	1333.482055664062	-500.1692504882812	-1171.641967773438	1402.562133789062	-694.3905639648438	-1090.201293945312	1423.497680664062	-795.8721313476562	-1126.95654296875	1305.1572265625	-886.2106323242188	-1124.792846679688	1088.719970703125	-920.3787231445312	-1188.360229492188	1079.038452148438	-839.2557983398438	-1042.773071289062	884.2505493164062	-888.7127075195312	-1100.840698242188	871.4299926757812	-934.41943359375	-1108.640991210938	1000.065307617188	-932.10107421875	-1096.462158203125	793.7972412109375	-938.3765258789062	-1032.318969726562	798.3471069335938	-903.9996337890625	-1020.614929199219	1421.902954101562	-463.4497985839844	-1027.03369140625	1364.020629882812	-383.8082885742188	-1013.17919921875	1082.083862304688	-312.0079956054688	-1072.097900390625	1062.681762695312	-338.64697265625	-914.2467041015625	879.4805908203125	-371.7008972167969	-966.6812133789062	864.70068359375	-301.5543212890625	-1004.240295410156	1023.810546875	-302.0719299316406	-905.4111938476562	723.625732421875	-358.649658203125	-891.7164916992188	783.3118286132812	-358.5758056640625	-946.7879028320312	779.0974731445312	-304.2853088378906	-981.00390625	1646.666259765625	-543.6560668945312	-876.5057373046875	1630.2900390625	-721.527587890625	-853.0604858398438	1629.350341796875	-593.0667724609375	-1027.266479492188	1657.024536132812	-716.08251953125	-1078.35986328125	857.4332275390625	-816.902587890625	-1064.481567382812	860.745361328125	-418.1958618164062	-962.4044189453125	895.17724609375	-490.5252990722656	-975.7988891601562	895.3452758789062	-746.1968383789062	-1038.513061523438	436.5977478027344	-760.4046630859375	-1026.99755859375	588.1444702148438	-792.35302734375	-1184.461303710938	39.65285491943359	-754.8974609375	-1070.881469726562	283.7174377441406	-769.280029296875	-955.9915161132812	44.50375366210938	-671.1758422851562	-1030.843872070312	50.26253509521484	-647.281005859375	-1030.1650390625	47.24974822998047	-760.9514770507812	-1230.574829101562	44.07272720336914	-690.5014038085938	-1063.619384765625	466.4489135742188	-433.7188110351562	-1027.574462890625	726.9135131835938	-406.5430908203125	-1155.276000976562	39.38242340087891	-409.5003051757812	-1078.91162109375	326.2181396484375	-417.5986022949219	-944.964599609375	48.16308212280273	-476.2565612792969	-1010.637756347656	54.22711944580078	-507.0016784667969	-1018.499877929688	46.55630493164062	-398.6330871582031	-1224.864868164062	33.9853515625	-452.3314514160156	-1047.193603515625	715.04296875	-900.1715698242188	
68	0.67	-1184.526611328125	971.6400146484375	-544.5001220703125	-1200.054565429688	967.7343139648438	-686.1498413085938	-1170.470336914062	1057.727172851562	-600.7244873046875	-903.4293823242188	1249.9599609375	-661.6380615234375	-1186.987548828125	1182.9873046875	-602.1260986328125	-1113.829711914062	1450.9423828125	-608.5847778320312	-938.6552734375	1362.8916015625	-660.5169677734375	-1159.99072265625	1333.186157226562	-501.8070983886719	-1169.82177734375	1402.354858398438	-695.8997802734375	-1088.848266601562	1423.368286132812	-797.7359008789062	-1126.203857421875	1305.152221679688	-888.010009765625	-1124.5537109375	1088.71728515625	-922.4053955078125	-1187.591674804688	1079.119506835938	-840.84326171875	-1043.56982421875	883.6373291015625	-891.838623046875	-1102.248413085938	871.3423461914062	-937.0594482421875	-1109.01416015625	1000.006958007812	-934.4310913085938	-1098.083618164062	793.4867553710938	-941.3775024414062	-1033.728271484375	797.7545166015625	-907.3936157226562	-1017.834655761719	1421.455810546875	-465.6482849121094	-1024.013671875	1363.5263671875	-386.0970764160156	-1010.20654296875	1081.792846679688	-314.0442810058594	-1069.212280273438	1062.333374023438	-340.4892578125	-911.1990966796875	879.3168334960938	-373.9605407714844	-963.4373168945312	864.4299926757812	-303.6793518066406	-1001.183410644531	1023.512939453125	-304.1525573730469	-902.1580200195312	723.4515380859375	-360.9920959472656	-888.4973754882812	783.1687622070312	-360.9828796386719	-943.4422607421875	778.8517456054688	-306.503662109375	-978.7603149414062	1646.450561523438	-545.9406127929688	-874.47119140625	1629.9609375	-723.9449462890625	-850.897705078125	1629.037841796875	-595.5170288085938	-1025.257568359375	1656.729614257812	-718.3004760742188	-1076.9521484375	857.11083984375	-818.7870483398438	-1062.075561523438	860.2077026367188	-420.0171508789062	-960.3309936523438	894.8237915039062	-492.841552734375	-974.351806640625	894.982666015625	-748.3823852539062	-1037.840454101562	436.276611328125	-761.4019165039062	-1025.989501953125	587.7468872070312	-793.6533813476562	-1184.50634765625	39.51033782958984	-755.0748901367188	-1070.5029296875	283.4501953125	-770.0450439453125	-956.114013671875	44.38327789306641	-671.0511474609375	-1030.933959960938	50.24044799804688	-647.3102416992188	-1030.115234375	47.12973403930664	-761.0283813476562	-1230.667358398438	44.07826232910156	-690.7432861328125	-1058.85009765625	465.7930908203125	-435.1636047363281	-1024.514892578125	726.4723510742188	-408.4539184570312	-1155.11669921875	39.61915969848633	-409.5523376464844	-1075.61474609375	325.9175415039062	-418.6241149902344	-944.8456420898438	48.0957145690918	-476.0982971191406	-1010.478393554688	54.23708724975586	-506.8884887695312	-1018.428405761719	46.39532852172852	-398.5011596679688	-1224.709106445312	34.59869384765625	-452.3833923339844	-1049.292358398438	714.5043334960938	-903.6181640625	
